<svg width="18" height="25" viewBox="0 0 18 25" fill="none" xmlns="http://www.w3.org/2000/svg">
<path d="M2.46094 14.5166C2.46094 15.1962 1.91004 15.7471 1.23047 15.7471C0.5509 15.7471 0 15.1962 0 14.5166V1.23047C0 0.5509 0.5509 0 1.23047 0C1.91004 0 2.46094 0.5509 2.46094 1.23047V14.5166ZM7.36816 4.94629C7.36816 4.26672 6.81726 3.71582 6.1377 3.71582C5.45813 3.71582 4.90723 4.26672 4.90723 4.94629V23.7695C4.90723 24.4491 5.45813 25 6.1377 25C6.81726 25 7.36816 24.4491 7.36816 23.7695V4.94629ZM12.2803 4.94629C12.2803 4.26672 11.7294 3.71582 11.0498 3.71582C10.3702 3.71582 9.81934 4.26672 9.81934 4.94629V23.7695C9.81934 24.4491 10.3702 25 11.0498 25C11.7294 25 12.2803 24.4491 12.2803 23.7695V4.94629ZM17.1875 4.94141C17.1875 4.26184 16.6366 3.71094 15.957 3.71094C15.2775 3.71094 14.7266 4.26184 14.7266 4.94141V14.541C14.7266 15.2206 15.2775 15.7715 15.957 15.7715C16.6366 15.7715 17.1875 15.2206 17.1875 14.541V4.94141Z" fill="white"/>
</svg>
